<svg width="75" height="20" viewBox="0 0 75 20" fill="none" xmlns="http://www.w3.org/2000/svg">
<g clip-path="url(#clip0_2422_7376)">
<path d="M11.9387 9.30284C11.9187 7.11366 13.7456 6.04699 13.8291 5.99834C12.794 4.50104 11.1905 4.29744 10.6275 4.28122C9.28006 4.14068 7.97437 5.08122 7.28793 5.08122C6.60149 5.08122 5.53188 4.29564 4.39507 4.31906C2.92958 4.34248 1.55851 5.18393 0.806697 6.49023C-0.74415 9.1551 0.41263 13.0704 1.89992 15.2236C2.64265 16.2794 3.51069 17.4578 4.64931 17.4146C5.76251 17.3695 6.17837 16.7119 7.52038 16.7119C8.86239 16.7119 9.24011 17.4146 10.4005 17.3875C11.5954 17.3695 12.3454 16.3263 13.0646 15.2632C13.9235 14.0542 14.2686 12.8614 14.2831 12.8019C14.2559 12.7911 11.9641 11.9245 11.9423 9.30104L11.9387 9.30284Z" fill="white"/>
<path d="M9.74645 2.86319C10.3439 2.12084 10.7543 1.11364 10.6399 0.0866089C9.77369 0.126249 8.68955 0.683005 8.06667 1.40913C7.51461 2.04877 7.02066 3.09742 7.1496 4.08481C8.12296 4.15508 9.11994 3.59652 9.74645 2.86499V2.86319Z" fill="white"/>
<path d="M28.0371 17.2631H26.4826L25.6309 14.609H22.669L21.8573 17.2631H20.3428L23.2756 8.22345H25.0879L28.0353 17.2631H28.0371ZM25.3749 13.4937L24.6049 11.1352C24.5232 10.8955 24.3688 10.3244 24.1436 9.43246H24.1182C24.0274 9.81624 23.8839 10.3856 23.6842 11.1352L22.9269 13.4937H25.3749Z" fill="white"/>
<path d="M35.5819 13.9243C35.5819 15.0324 35.2786 15.9099 34.6757 16.5532C34.1346 17.1261 33.4626 17.4126 32.6618 17.4126C31.7974 17.4126 31.1745 17.1045 30.7968 16.4847H30.7695V19.9207H29.3113V12.8937C29.3113 12.1964 29.2932 11.4811 29.2568 10.7459H30.5426L30.6225 11.7802H30.6497C31.1364 11.0018 31.8755 10.6126 32.867 10.6126C33.6424 10.6126 34.2889 10.9153 34.8065 11.5243C35.3258 12.1333 35.5837 12.9315 35.5837 13.9243H35.5819ZM34.0928 13.9766C34.0928 13.3441 33.9493 12.8198 33.6606 12.409C33.3446 11.9784 32.9215 11.764 32.3894 11.764C32.028 11.764 31.703 11.8847 31.4088 12.1189C31.1164 12.3568 30.9239 12.6667 30.8349 13.0522C30.7895 13.2324 30.7659 13.3784 30.7659 13.4937V14.5802C30.7659 15.0559 30.913 15.4559 31.2054 15.782C31.4996 16.1081 31.8791 16.2703 32.3476 16.2703C32.8961 16.2703 33.3264 16.0613 33.6315 15.6396C33.9384 15.2198 34.091 14.6649 34.091 13.9748L34.0928 13.9766Z" fill="white"/>
<path d="M43.1355 13.9243C43.1355 15.0324 42.834 15.9099 42.2293 16.5532C41.6881 17.1261 41.0162 17.4126 40.2154 17.4126C39.351 17.4126 38.7281 17.1045 38.3504 16.4847H38.3231V19.9207H36.8631V12.8937C36.8631 12.1964 36.8449 11.4811 36.8086 10.7459H38.0925L38.1742 11.7802H38.2015C38.6863 11.0018 39.4254 10.6126 40.4169 10.6126C41.1906 10.6126 41.8389 10.9153 42.3582 11.5243C42.8758 12.1333 43.1355 12.9315 43.1355 13.9243ZM41.65 13.9766C41.65 13.3441 41.5047 12.8198 41.2178 12.409C40.9018 11.9784 40.4787 11.764 39.9466 11.764C39.5852 11.764 39.2602 11.8847 38.966 12.1189C38.6736 12.3568 38.4829 12.6667 38.3921 13.0522C38.3467 13.2324 38.3249 13.3784 38.3249 13.4937V14.5802C38.3249 15.0559 38.472 15.4559 38.7626 15.782C39.055 16.1081 39.4363 16.2703 39.9048 16.2703C40.4551 16.2703 40.8837 16.0613 41.1887 15.6396C41.4956 15.2198 41.65 14.6649 41.65 13.9748V13.9766Z" fill="white"/>
<path d="M51.5838 14.7297C51.5838 15.4972 51.315 16.1243 50.7757 16.6071C50.1819 17.1351 49.3556 17.3981 48.2933 17.3981C47.3126 17.3981 46.5263 17.2107 45.9307 16.8342L46.2684 15.627C46.9095 16.0107 47.6123 16.2035 48.3786 16.2035C48.927 16.2035 49.3556 16.0774 49.6643 15.8324C49.9694 15.5873 50.122 15.2576 50.122 14.845C50.122 14.4792 49.9966 14.1675 49.7442 13.9171C49.4936 13.6684 49.0723 13.4342 48.4876 13.2198C46.8913 12.6288 46.0959 11.7639 46.0959 10.6288C46.0959 9.88462 46.3756 9.27561 46.9349 8.79994C47.4924 8.32786 48.2351 8.09003 49.1649 8.09003C49.9948 8.09003 50.6831 8.23057 51.2315 8.51886L50.8665 9.69904C50.3526 9.42156 49.7733 9.28282 49.1232 9.28282C48.6092 9.28282 48.2079 9.40894 47.9192 9.65579C47.6776 9.88102 47.5542 10.1513 47.5542 10.4756C47.5542 10.8306 47.694 11.1261 47.9736 11.3585C48.217 11.5747 48.6583 11.8053 49.2993 12.0558C50.082 12.3693 50.6595 12.7351 51.0299 13.1549C51.3986 13.5747 51.582 14.1008 51.582 14.7243L51.5838 14.7297Z" fill="white"/>
<path d="M56.4116 11.8324H54.8026V14.9982C54.8026 15.8036 55.0859 16.2054 55.6543 16.2054C55.9158 16.2054 56.1319 16.182 56.3026 16.1369L56.3426 17.236C56.0557 17.3423 55.6761 17.3982 55.2076 17.3982C54.6301 17.3982 54.1798 17.2234 53.8547 16.8738C53.5315 16.5261 53.368 15.9405 53.368 15.1189V11.8324H52.4092V10.7459H53.368V9.55133L54.8026 9.1225V10.7441H56.4116V11.8306V11.8324Z" fill="white"/>
<path d="M63.6713 13.9495C63.6713 14.9531 63.3826 15.7729 62.8069 16.418C62.2022 17.0792 61.3995 17.4108 60.4007 17.4108C59.402 17.4108 58.6683 17.0919 58.0963 16.4576C57.5242 15.8234 57.2373 15.0234 57.2373 14.0558C57.2373 13.0883 57.5315 12.2198 58.1217 11.5765C58.7119 10.9315 59.5073 10.6108 60.5079 10.6108C61.5085 10.6108 62.2476 10.9261 62.8323 11.5639C63.3917 12.1801 63.6713 12.9747 63.6713 13.9495ZM62.155 13.9982C62.155 13.3982 62.026 12.8829 61.7645 12.4522C61.4576 11.9333 61.02 11.672 60.4534 11.672C59.8868 11.672 59.4219 11.9333 59.115 12.4522C58.8535 12.8829 58.7228 13.4054 58.7228 14.027C58.7228 14.6486 58.8535 15.1423 59.115 15.5711C59.4292 16.0937 59.8723 16.3531 60.4389 16.3531C61.0055 16.3531 61.434 16.0901 61.75 15.5585C62.0206 15.1189 62.155 14.6 62.155 13.9982Z" fill="white"/>
<path d="M68.4161 12.0198C68.2708 11.9946 68.1165 11.9783 67.9549 11.9783C67.4409 11.9783 67.0451 12.1711 66.7654 12.5549C66.5239 12.8937 66.4004 13.3261 66.4004 13.8432V17.263H64.9422L64.9549 12.7982C64.9549 12.045 64.9367 11.3621 64.9004 10.7441H66.1716L66.2261 11.9928H66.266C66.4204 11.5639 66.6637 11.2198 66.996 10.9585C67.3211 10.7261 67.6734 10.6108 68.0511 10.6108C68.1873 10.6108 68.3072 10.618 68.4179 10.636V12.018L68.4161 12.0198Z" fill="white"/>
<path d="M74.9437 13.6972C74.9437 13.9549 74.9274 14.1747 74.891 14.3531H70.5109C70.5272 14.9981 70.7397 15.49 71.1465 15.8288C71.5151 16.1315 71.9927 16.2828 72.5793 16.2828C73.2276 16.2828 73.8178 16.1801 74.3499 15.9747L74.5787 16.9801C73.9576 17.2486 73.2222 17.3819 72.3759 17.3819C71.3571 17.3819 70.5581 17.0864 69.9752 16.4918C69.3941 15.8954 69.1035 15.099 69.1035 14.099C69.1035 13.099 69.3741 12.2972 69.9153 11.6432C70.4818 10.9459 71.2482 10.5981 72.2125 10.5981C73.1768 10.5981 73.8759 10.9459 74.3626 11.6432C74.7494 12.1963 74.9437 12.881 74.9437 13.6972ZM73.5527 13.3207C73.5617 12.8918 73.4673 12.5207 73.2694 12.2072C73.017 11.8054 72.6283 11.6036 72.1053 11.6036C71.6277 11.6036 71.2409 11.7999 70.9431 12.1945C70.7016 12.5081 70.5563 12.881 70.5109 13.3207H73.5527Z" fill="white"/>
<path d="M24.8919 2.66124C24.8919 3.46124 24.6504 4.06484 24.1674 4.46664C23.7206 4.83962 23.085 5.0288 22.2624 5.0288C21.8538 5.0288 21.5033 5.01079 21.2109 4.97655V0.605381C21.5923 0.545921 22.0027 0.513489 22.4476 0.513489C23.2303 0.513489 23.8223 0.682858 24.2218 1.0198C24.6686 1.40178 24.8919 1.94952 24.8919 2.66124ZM24.1365 2.68286C24.1365 2.16214 23.9985 1.76574 23.7224 1.48826C23.4464 1.21079 23.0414 1.07205 22.5094 1.07205C22.2824 1.07205 22.0899 1.08826 21.9319 1.11889V4.43962C22.0209 4.45223 22.1825 4.46124 22.4186 4.46124C22.967 4.46124 23.3901 4.30989 23.6898 4.00718C23.9894 3.70448 24.1383 3.26304 24.1383 2.68286H24.1365Z" fill="white"/>
<path d="M28.9039 3.36223C28.9039 3.85413 28.7623 4.25773 28.479 4.57485C28.1812 4.89917 27.7871 5.06133 27.2968 5.06133C26.8065 5.06133 26.4451 4.90638 26.1636 4.59287C25.884 4.28296 25.7441 3.88836 25.7441 3.41449C25.7441 2.91899 25.8876 2.50998 26.1782 2.19467C26.4669 1.87935 26.8592 1.7226 27.3495 1.7226C27.8398 1.7226 28.2048 1.87755 28.4917 2.19106C28.7659 2.49377 28.9039 2.88296 28.9039 3.36404V3.36223ZM28.1594 3.38205C28.1594 3.08656 28.0958 2.83431 27.9669 2.6235C27.8162 2.36764 27.6019 2.23971 27.3222 2.23971C27.0426 2.23971 26.8156 2.36764 26.6648 2.6235C26.5377 2.83251 26.4724 3.09196 26.4724 3.39467C26.4724 3.69737 26.5359 3.94242 26.6648 4.15503C26.821 4.41088 27.0371 4.53881 27.3168 4.53881C27.5964 4.53881 27.8053 4.40728 27.9615 4.14962C28.094 3.93341 28.1594 3.67755 28.1594 3.38205Z" fill="white"/>
<path d="M34.2825 1.78546L33.2728 4.98906H32.6154L32.1959 3.59627C32.0888 3.25213 32.0034 2.90618 31.9362 2.56204H31.9235C31.8599 2.91519 31.7746 3.25934 31.6638 3.59627L31.2189 4.98906H30.5542L29.6045 1.78546H30.3418L30.7068 3.30618C30.7958 3.66654 30.8684 4.00889 30.9265 4.33501H30.9392C30.9919 4.06654 31.0809 3.726 31.2044 3.31339L31.662 1.78546H32.2449L32.6844 3.27916C32.7897 3.64492 32.8769 3.99447 32.9423 4.33501H32.9622C33.0113 4.00528 33.0839 3.65213 33.182 3.27916L33.5724 1.78546H34.277H34.2825Z" fill="white"/>
<path d="M38.0013 4.9892H37.284V3.15497C37.284 2.5874 37.0679 2.30632 36.6339 2.30632C36.4214 2.30632 36.2489 2.3838 36.1163 2.53875C35.9838 2.69551 35.9166 2.87749 35.9166 3.0865V4.9892H35.1993V2.70092C35.1993 2.42164 35.192 2.11533 35.1738 1.7856H35.804L35.8367 2.2847H35.8566C35.9402 2.12974 36.0655 2.00182 36.2289 1.89731C36.4232 1.78019 36.6393 1.71893 36.879 1.71893C37.1805 1.71893 37.4311 1.81623 37.629 2.00902C37.876 2.24326 37.9995 2.60001 37.9995 3.07028V4.9874L38.0013 4.9892Z" fill="white"/>
<path d="M39.9811 4.98924H39.2656V0.315369H39.9811V4.98924Z" fill="white"/>
<path d="M44.2046 3.36223C44.2046 3.85413 44.0629 4.25773 43.7796 4.57485C43.4818 4.89917 43.0878 5.06133 42.5974 5.06133C42.1071 5.06133 41.7457 4.90638 41.4643 4.59287C41.1828 4.28296 41.043 3.88836 41.043 3.41449C41.043 2.91899 41.1864 2.50998 41.477 2.19467C41.7657 1.87935 42.158 1.7226 42.6483 1.7226C43.1386 1.7226 43.5036 1.87755 43.7905 2.19106C44.0648 2.49377 44.2028 2.88296 44.2028 3.36404L44.2046 3.36223ZM43.46 3.38205C43.46 3.08656 43.3947 2.83431 43.2675 2.6235C43.1168 2.36764 42.9025 2.23971 42.6247 2.23971C42.3468 2.23971 42.1162 2.36764 41.9673 2.6235C41.8384 2.83251 41.773 3.09196 41.773 3.39467C41.773 3.69737 41.8384 3.94242 41.9673 4.15503C42.1217 4.41088 42.3378 4.53881 42.6174 4.53881C42.8971 4.53881 43.1059 4.40728 43.2603 4.14962C43.3928 3.93341 43.46 3.67755 43.46 3.38205Z" fill="white"/>
<path d="M47.6787 4.98926H47.034L46.9795 4.61809H46.9595C46.7398 4.91359 46.4256 5.05953 46.017 5.05953C45.712 5.05953 45.4668 4.96223 45.2798 4.76944C45.1109 4.59467 45.0273 4.37845 45.0273 4.11899C45.0273 3.728 45.1926 3.4289 45.5231 3.2235C45.8536 3.01809 46.3185 2.91539 46.916 2.92079V2.86133C46.916 2.43791 46.6926 2.2289 46.2459 2.2289C45.9281 2.2289 45.6466 2.30638 45.4051 2.46674L45.2598 2.00007C45.5594 1.81449 45.9299 1.7226 46.3675 1.7226C47.212 1.7226 47.6333 2.16404 47.6333 3.04692V4.2253C47.6333 4.54602 47.6496 4.80007 47.6805 4.99106L47.6787 4.98926ZM46.9323 3.88656V3.39287C46.1405 3.38025 45.7447 3.59647 45.7447 4.03791C45.7447 4.20548 45.7901 4.3298 45.8827 4.41449C45.9753 4.49737 46.0915 4.54061 46.2332 4.54061C46.3893 4.54061 46.5364 4.49016 46.6708 4.39106C46.8052 4.29196 46.8887 4.16584 46.9196 4.01269C46.9269 3.97845 46.9323 3.93701 46.9323 3.88656Z" fill="white"/>
<path d="M51.7536 4.98924H51.118L51.0835 4.47393H51.0635C50.8601 4.86312 50.5151 5.05951 50.0266 5.05951C49.6362 5.05951 49.3147 4.90816 49.0569 4.60546C48.8008 4.30276 48.6719 3.90996 48.6719 3.42708C48.6719 2.90816 48.8117 2.48834 49.0914 2.16762C49.3619 1.87032 49.6925 1.72077 50.0883 1.72077C50.5224 1.72077 50.8238 1.86492 50.9963 2.15501H51.0109V0.315369H51.7282V4.12438C51.7282 4.43789 51.7354 4.72438 51.7536 4.98924ZM51.0109 3.63789V3.10276C51.0109 3.01086 51.0036 2.93519 50.9891 2.87753C50.9491 2.70816 50.862 2.56402 50.7294 2.4469C50.5968 2.33159 50.4352 2.27213 50.25 2.27213C49.983 2.27213 49.7724 2.37843 49.618 2.58744C49.4673 2.79825 49.3892 3.07032 49.3892 3.40005C49.3892 3.72978 49.4618 3.97303 49.6089 4.17122C49.7651 4.38023 49.9739 4.48654 50.2373 4.48654C50.4715 4.48654 50.6604 4.39825 50.8038 4.22348C50.9419 4.06131 51.0109 3.86492 51.0109 3.63789Z" fill="white"/>
<path d="M57.8901 3.36223C57.8901 3.85413 57.7485 4.25773 57.4652 4.57485C57.1692 4.89917 56.7751 5.06133 56.283 5.06133C55.7909 5.06133 55.4331 4.90638 55.1498 4.59287C54.8702 4.28296 54.7285 3.88836 54.7285 3.41449C54.7285 2.91899 54.8738 2.50998 55.1625 2.19467C55.4531 1.87935 55.8435 1.7226 56.3357 1.7226C56.8278 1.7226 57.191 1.87755 57.4779 2.19106C57.7521 2.49377 57.8901 2.88296 57.8901 3.36404V3.36223ZM57.1474 3.38205C57.1474 3.08656 57.0838 2.83431 56.9531 2.6235C56.8024 2.36764 56.5881 2.23971 56.3102 2.23971C56.0324 2.23971 55.8036 2.36764 55.6528 2.6235C55.5257 2.83251 55.4604 3.09196 55.4604 3.39467C55.4604 3.69737 55.5257 3.94242 55.6528 4.15503C55.809 4.41088 56.0233 4.53881 56.3048 4.53881C56.5863 4.53881 56.7933 4.40728 56.9495 4.14962C57.082 3.93341 57.1492 3.67755 57.1492 3.38205H57.1474Z" fill="white"/>
<path d="M61.7494 4.9892H61.032V3.15497C61.032 2.5874 60.8159 2.30632 60.3819 2.30632C60.1695 2.30632 59.9969 2.3838 59.8626 2.53875C59.7318 2.69551 59.6646 2.87749 59.6646 3.0865V4.9892H58.9473V2.70092C58.9473 2.42164 58.94 2.11533 58.9219 1.7856H59.552L59.5847 2.2847H59.6047C59.6882 2.12974 59.8135 2.00182 59.977 1.89731C60.1713 1.78019 60.3892 1.71893 60.6271 1.71893C60.9285 1.71893 61.1791 1.81623 61.3771 2.00902C61.6259 2.24326 61.7494 2.60001 61.7494 3.07028V4.9874V4.9892Z" fill="white"/>
<path d="M66.5773 2.31893H65.7874V3.87388C65.7874 4.27028 65.929 4.46667 66.2069 4.46667C66.334 4.46667 66.4411 4.45586 66.5265 4.43604L66.5446 4.97658C66.403 5.02884 66.2178 5.05406 65.9871 5.05406C65.7038 5.05406 65.4823 4.96757 65.3243 4.7964C65.1645 4.62703 65.0864 4.33875 65.0864 3.93334V2.31893H64.6143V1.78559H65.0864V1.19821L65.7892 0.989197V1.78559H66.5792V2.31893H66.5773Z" fill="white"/>
<path d="M70.3773 4.98924H69.6581V3.16762C69.6581 2.59285 69.442 2.30636 69.0098 2.30636C68.6775 2.30636 68.4487 2.47393 68.3252 2.80546C68.3034 2.87573 68.2907 2.96222 68.2907 3.06131V4.98924H67.5752V0.315369H68.2907V2.2451H68.3034C68.5304 1.89555 68.8536 1.72077 69.2731 1.72077C69.5691 1.72077 69.8161 1.81807 70.0104 2.01086C70.2538 2.2505 70.3773 2.60906 70.3773 3.08474V4.98924Z" fill="white"/>
<path d="M74.2949 3.23593C74.2949 3.36206 74.2858 3.47197 74.2677 3.55665H72.1157C72.1248 3.87197 72.2283 4.11521 72.4281 4.28278C72.6097 4.43233 72.8457 4.5044 73.1327 4.5044C73.4505 4.5044 73.741 4.45395 74.0025 4.35305L74.1151 4.84855C73.8082 4.98008 73.4486 5.04494 73.031 5.04494C72.5316 5.04494 72.1375 4.899 71.8524 4.60891C71.5673 4.31701 71.4238 3.92422 71.4238 3.43053C71.4238 2.93683 71.5546 2.54765 71.8233 2.22692C72.1012 1.88458 72.4771 1.71161 72.9511 1.71161C73.425 1.71161 73.7683 1.88458 74.0062 2.22692C74.1986 2.499 74.2931 2.83593 74.2931 3.23593H74.2949ZM73.6103 3.05035C73.6157 2.83954 73.5685 2.65575 73.4704 2.5044C73.3469 2.3062 73.1563 2.2071 72.8984 2.2071C72.666 2.2071 72.4735 2.3044 72.3282 2.49719C72.2083 2.65215 72.1375 2.83593 72.1157 3.05035H73.6103Z" fill="white"/>
</g>
<defs>
<clipPath id="clip0_2422_7376">
<rect width="75" height="20" fill="white"/>
</clipPath>
</defs>
</svg>
