<svg width="64" height="64" viewBox="0 0 64 64" fill="none" xmlns="http://www.w3.org/2000/svg">
<g clip-path="url(#clip0_2570_7309)">
<circle cx="32" cy="32" r="32" fill="#E1E7EE"/>
<path d="M31.9993 46.9283C33.6482 46.9283 34.9849 45.5916 34.9849 43.9427C34.9849 42.2938 33.6482 40.9571 31.9993 40.9571C30.3504 40.9571 29.0137 42.2938 29.0137 43.9427C29.0137 45.5916 30.3504 46.9283 31.9993 46.9283Z" fill="#858F9D"/>
<path d="M31.9993 34.9864C31.2074 34.9864 30.448 34.6718 29.8881 34.1119C29.3282 33.552 29.0137 32.7926 29.0137 32.0008V20.0584C29.0137 19.2665 29.3282 18.5071 29.8881 17.9472C30.448 17.3873 31.2074 17.0728 31.9993 17.0728C32.7911 17.0728 33.5505 17.3873 34.1104 17.9472C34.6703 18.5071 34.9849 19.2665 34.9849 20.0584V32.0008C34.9849 32.7926 34.6703 33.552 34.1104 34.1119C33.5505 34.6718 32.7911 34.9864 31.9993 34.9864Z" fill="#858F9D"/>
</g>
<defs>
<clipPath id="clip0_2570_7309">
<rect width="64" height="64" fill="white"/>
</clipPath>
</defs>
</svg>
