<svg width="22" height="19" viewBox="0 0 22 19" fill="none" xmlns="http://www.w3.org/2000/svg">
<path d="M13.4995 14.5127L11.2973 14.3743V14.3163L10.8359 14.3451L10.3693 14.3158V14.3745L8.16715 14.5132L10.2703 17.9568C10.287 17.9854 10.3059 18.0125 10.3269 18.038C10.3778 18.1274 10.4511 18.2018 10.5397 18.2536C10.6282 18.3055 10.7287 18.333 10.8312 18.3333C10.9336 18.3337 11.0344 18.3069 11.1232 18.2557C11.2121 18.2045 11.2861 18.1306 11.3376 18.0416C11.3607 18.0159 11.3804 17.9873 11.3963 17.9566L13.4995 14.5127Z" fill="#28303A"/>
<path d="M4.51966 6.32426C4.35107 6.32431 4.18628 6.37463 4.04612 6.46887C3.90597 6.5631 3.79674 6.69703 3.73224 6.8537C3.66775 7.01038 3.65088 7.18277 3.68378 7.34909C3.71668 7.5154 3.79787 7.66817 3.91708 7.78808C4.03629 7.90799 4.18817 7.98965 4.35351 8.02274C4.51886 8.05584 4.69025 8.03887 4.84601 7.974C5.00178 7.90913 5.13492 7.79926 5.22861 7.65828C5.3223 7.5173 5.37233 7.35154 5.37237 7.18197C5.3724 7.06932 5.35036 6.95778 5.30752 6.8537C5.26468 6.74963 5.20187 6.65506 5.12268 6.57541C5.04349 6.49576 4.94948 6.43258 4.84601 6.38949C4.74254 6.3464 4.63165 6.32423 4.51966 6.32426Z" fill="#28303A"/>
<path d="M12.1179 6.32426C11.9493 6.32417 11.7844 6.37438 11.6442 6.46854C11.5039 6.56269 11.3946 6.69657 11.33 6.85324C11.2654 7.0099 11.2484 7.18231 11.2813 7.34867C11.3141 7.51503 11.3952 7.66786 11.5144 7.78784C11.6336 7.90782 11.7855 7.98955 11.9508 8.0227C12.1162 8.05584 12.2876 8.03892 12.4434 7.97406C12.5992 7.90921 12.7324 7.79934 12.8261 7.65835C12.9198 7.51736 12.9699 7.35157 12.9699 7.18197C12.9699 6.95461 12.8802 6.73655 12.7204 6.57571C12.5606 6.41488 12.3439 6.32444 12.1179 6.32426Z" fill="#28303A"/>
<path d="M17.2268 6.32426C17.0582 6.32422 16.8933 6.37448 16.7531 6.46868C16.6129 6.56288 16.5036 6.6968 16.439 6.8535C16.3745 7.01019 16.3576 7.18262 16.3904 7.34898C16.4233 7.51534 16.5045 7.66815 16.6238 7.78808C16.743 7.90801 16.8949 7.98969 17.0603 8.02277C17.2257 8.05584 17.3971 8.03884 17.5529 7.97391C17.7087 7.90898 17.8418 7.79905 17.9355 7.658C18.0291 7.51695 18.0791 7.35114 18.0791 7.18152C18.0791 6.95416 17.9893 6.73611 17.8294 6.57534C17.6696 6.41458 17.4528 6.32426 17.2268 6.32426Z" fill="#28303A"/>
<path d="M18.2446 0H3.42203C2.97185 0.000796252 2.52624 0.0907762 2.11063 0.264798C1.69502 0.438819 1.31756 0.693474 0.999792 1.01423C0.682027 1.33498 0.430185 1.71555 0.258641 2.13421C0.087097 2.55286 -0.000787288 3.0014 5.72012e-06 3.45422V11.6488C-0.000816668 12.1016 0.0870454 12.5502 0.258576 12.9688C0.430107 13.3875 0.681946 13.7681 0.999713 14.0889C1.31748 14.4097 1.69495 14.6643 2.11058 14.8384C2.5262 15.0124 2.97183 15.1024 3.42203 15.1032H18.2446C19.1538 15.1015 20.0251 14.7366 20.6668 14.0888C21.3086 13.4409 21.6682 12.5633 21.6667 11.6488V3.45422C21.6682 2.53973 21.3086 1.66207 20.6668 1.0143C20.0251 0.366518 19.1538 0.00166768 18.2446 0ZM4.81194 9.21274C4.59277 9.22176 4.375 9.1736 4.17981 9.07293C3.98462 8.97226 3.81864 8.82251 3.698 8.63823V9.07383H2.35726V3.5149H3.68415V5.63108C3.98413 5.32413 4.38494 5.13749 4.81172 5.10603C6.61234 5.10603 6.68093 7.13882 6.68093 7.13882C6.68116 9.14351 4.81194 9.21274 4.81194 9.21274ZM8.99059 5.47891V9.07383H7.71197V5.78325C7.71197 4.64908 7.10685 4.67672 7.10685 4.67672V3.39061C9.04601 3.39061 8.99238 5.47891 8.99238 5.47891H8.99059ZM14.3589 7.18152C14.3589 9.20937 12.1168 9.21274 12.1168 9.21274C9.85425 9.21274 9.92509 7.18152 9.92509 7.18152C9.92509 5.12311 12.1168 5.12289 12.1168 5.12289C14.4327 5.12289 14.3589 7.18152 14.3589 7.18152ZM19.3078 9.02214C19.3078 11.1275 17.3696 11.1066 17.3696 11.1066H16.8541V9.92412H17.1736C18.1121 9.92412 18.0189 8.94954 18.0189 8.94954V8.63779C17.6069 9.17723 16.8541 9.14621 16.8541 9.14621C15.0083 9.14621 15.0291 7.16826 15.0291 7.16826C15.0291 5.04376 16.9061 5.12289 16.9061 5.12289C17.1174 5.12089 17.3265 5.16534 17.5189 5.25312C17.7114 5.3409 17.8824 5.46989 18.0201 5.63108V5.25797H19.309L19.3078 9.02214Z" fill="#28303A"/>
</svg>
