<svg width="68" height="16" viewBox="0 0 68 16" fill="none" xmlns="http://www.w3.org/2000/svg">
<g clip-path="url(#clip0_2422_7278)">
<path d="M22.0115 2.10153C22.0115 2.58768 21.8656 2.97537 21.5753 3.26307C21.2446 3.60614 20.8145 3.77845 20.2836 3.77845C19.7526 3.77845 19.3459 3.6046 18.9919 3.25691C18.6379 2.90768 18.4609 2.47537 18.4609 1.96153C18.4609 1.44768 18.6379 1.01384 18.9919 0.666144C19.3459 0.316913 19.7775 0.143066 20.2836 0.143066C20.5351 0.143066 20.7757 0.192297 21.0055 0.28922C21.2337 0.386143 21.4169 0.516913 21.5551 0.678451L21.2461 0.984605C21.0133 0.70922 20.6934 0.572297 20.2836 0.572297C19.9141 0.572297 19.5943 0.699989 19.3257 0.958451C19.0555 1.21537 18.9205 1.55076 18.9205 1.96153C18.9205 2.3723 19.0555 2.70768 19.3257 2.96461C19.5943 3.22307 19.9141 3.35076 20.2836 3.35076C20.6764 3.35076 21.004 3.22153 21.2648 2.96307C21.434 2.79384 21.5334 2.55999 21.5597 2.25691H20.2836V1.83999H21.9867C22.0022 1.93076 22.0115 2.01845 22.0115 2.10153Z" fill="white"/>
<path d="M22.0106 2.10164H21.9516C21.9516 2.57702 21.8103 2.94472 21.5324 3.22164C21.2126 3.55241 20.8011 3.71856 20.2842 3.71856C19.7905 3.71856 19.3775 3.55087 19.0344 3.21395C18.6897 2.87549 18.5205 2.46164 18.5205 1.9601C18.5205 1.45856 18.6897 1.04472 19.0344 0.706255C19.379 0.367794 19.792 0.20164 20.2842 0.20164C20.5279 0.20164 20.7608 0.247794 20.9812 0.34164C21.2032 0.437025 21.3787 0.560101 21.5091 0.713948L21.5541 0.677025L21.5122 0.635486L21.2032 0.94164L21.2452 0.98164L21.2886 0.944717C21.0464 0.655486 20.7049 0.510871 20.2826 0.510871C19.8991 0.510871 19.5622 0.646255 19.2828 0.913948C19.0018 1.18164 18.859 1.53549 18.8605 1.95856C18.8605 2.38164 19.0018 2.73549 19.2828 3.00318C19.5622 3.27087 19.8991 3.40626 20.2826 3.40626C20.6878 3.40626 21.034 3.27087 21.3057 3.0001C21.4874 2.8201 21.5898 2.56933 21.6178 2.2601L21.6224 2.19702H20.3416V1.89549H21.9857V1.83856L21.9267 1.84779C21.9422 1.93549 21.9516 2.0201 21.9516 2.1001H22.068C22.068 2.01241 22.0587 1.92164 22.0416 1.82779L22.0323 1.7801H20.2221V2.31395H21.5572V2.25549L21.4982 2.25087C21.4718 2.54318 21.3771 2.76164 21.2203 2.9201C20.9688 3.16779 20.6599 3.29087 20.2811 3.29241C19.9255 3.29241 19.6243 3.16933 19.362 2.92164C19.1043 2.67395 18.9754 2.35856 18.9754 1.9601C18.9754 1.56164 19.1043 1.24626 19.362 0.997025C19.6228 0.749332 19.924 0.627794 20.2811 0.627794C20.6785 0.627794 20.9766 0.758563 21.1986 1.0201L21.239 1.06779L21.5929 0.717025L21.6317 0.680101L21.5976 0.640102C21.4532 0.469332 21.2607 0.335486 21.0263 0.235486C20.7903 0.135486 20.5419 0.0847168 20.2826 0.0847168C19.7625 0.0847168 19.3138 0.264717 18.9506 0.624717C18.5842 0.98164 18.3994 1.43241 18.3994 1.96164C18.3994 2.49087 18.5842 2.9401 18.9506 3.29856C19.3138 3.65702 19.7625 3.83856 20.2826 3.83702C20.8244 3.83702 21.2747 3.65856 21.6162 3.30472L21.5727 3.26472L21.6147 3.30626C21.9174 3.00626 22.068 2.6001 22.068 2.10318H22.009" fill="white"/>
<path d="M24.7075 0.647663H23.1084V1.75074H24.5507V2.1692H23.1084V3.27228H24.7075V3.69997H22.6582V0.219971H24.7075V0.647663Z" fill="white"/>
<path d="M24.7079 0.647775V0.589314H23.0498V1.80931H24.4921V2.11085H23.0498V3.33085H24.6489V3.64162H22.7176V0.278544H24.6489V0.647775H24.7079V0.589314V0.647775H24.7669V0.161621H22.5996V3.75854H24.7669V3.21547H23.1678V2.22777H24.6086V1.69393H23.1678V0.706237H24.7669V0.647775H24.7079Z" fill="white"/>
<path d="M26.6107 3.69997H26.1589V0.647663H25.1777V0.219971H27.5919V0.647663H26.6107V3.69997Z" fill="white"/>
<path d="M26.6115 3.70008V3.64162H26.2172V0.589314H25.2375V0.278544H27.5352V0.589314H26.5525V3.70008H26.6115V3.64162V3.70008H26.6705V0.706237H27.6501V0.161621H25.1211V0.706237H26.1023V3.75854H26.6705V3.70008H26.6115Z" fill="white"/>
<path d="M29.7906 0.219971H29.3389V3.69997H29.7906V0.219971Z" fill="white"/>
<path d="M29.3383 3.70008H29.3957V0.278544H29.7295V3.64162H29.3383V3.70008H29.3957H29.3383V3.75854H29.8475V0.161621H29.2793V3.75854H29.3383V3.70008Z" fill="white"/>
<path d="M31.7908 3.69997H31.3406V0.647663H30.3594V0.219971H32.772V0.647663H31.7908V3.69997Z" fill="white"/>
<path d="M31.7902 3.70008V3.64162H31.3974V0.589314H30.4162V0.278544H32.7124V0.589314H31.7328V3.70008H31.7902V3.64162V3.70008H31.8492V0.706237H32.8304V0.161621H30.2998V0.706237H31.281V3.75854H31.8492V3.70008H31.7902Z" fill="white"/>
<path d="M37.3411 3.25083C36.9964 3.6016 36.5664 3.77852 36.054 3.77852C35.5417 3.77852 35.1116 3.60314 34.767 3.25083C34.4223 2.90006 34.25 2.46929 34.25 1.96006C34.25 1.45083 34.4223 1.0216 34.767 0.669294C35.1132 0.316986 35.5401 0.141602 36.054 0.141602C36.5679 0.141602 36.9933 0.318525 37.3379 0.670832C37.6842 1.02314 37.858 1.45391 37.858 1.95852C37.858 2.46314 37.6857 2.89699 37.3411 3.24929M35.0977 2.95852C35.3569 3.22006 35.6768 3.34929 36.0525 3.34929C36.4282 3.34929 36.7464 3.22006 37.0057 2.95852C37.2665 2.69699 37.3969 2.36468 37.3969 1.96006C37.3969 1.55545 37.2665 1.2216 37.0057 0.961602C36.7464 0.700063 36.4282 0.570832 36.0525 0.570832C35.6768 0.570832 35.3585 0.700063 35.0977 0.961602C34.8384 1.22314 34.708 1.55545 34.708 1.96006C34.708 2.36468 34.8384 2.69852 35.0977 2.95852Z" fill="white"/>
<path d="M37.3401 3.25072L37.2982 3.21072C36.9628 3.55226 36.5514 3.71995 36.0515 3.71995C35.55 3.71995 35.1402 3.55226 34.8064 3.21072C34.471 2.86918 34.3049 2.45688 34.3049 1.96149C34.3049 1.46611 34.471 1.05226 34.8064 0.712262C35.1402 0.370724 35.55 0.203031 36.0515 0.203031C36.5483 0.203031 36.9582 0.372262 37.2951 0.715339C37.6304 1.05842 37.7965 1.47072 37.7965 1.96303C37.7965 2.45534 37.6304 2.87226 37.2966 3.21226L37.3804 3.2938C37.736 2.93226 37.9145 2.48457 37.9145 1.96303C37.9145 1.44457 37.736 0.996877 37.3789 0.635339C37.0234 0.270724 36.5747 0.0876465 36.0515 0.0876465C35.5236 0.0876465 35.0765 0.270724 34.7225 0.632262C34.367 0.9938 34.1885 1.44149 34.1885 1.96303C34.1885 2.48457 34.367 2.93226 34.7225 3.2938C35.0765 3.65688 35.5236 3.83995 36.0515 3.83842C36.5762 3.83842 37.0265 3.65688 37.3804 3.2938L37.3385 3.2538M35.0967 2.95842L35.0548 2.99842C35.3249 3.27072 35.6603 3.40765 36.0515 3.40765C36.4412 3.40765 36.7781 3.27072 37.0482 2.99842C37.3183 2.72765 37.455 2.37534 37.455 1.95842C37.455 1.54149 37.3183 1.19072 37.0482 0.918416C36.7781 0.646108 36.4412 0.509185 36.0515 0.510723C35.6603 0.510723 35.3249 0.647647 35.0548 0.918416C34.7846 1.19072 34.648 1.53995 34.648 1.95842C34.648 2.37688 34.7846 2.72765 35.0548 2.99842L35.1386 2.91688C34.8902 2.66765 34.7645 2.35072 34.7645 1.95842C34.7645 1.56611 34.8887 1.25072 35.1386 0.999954C35.3901 0.749185 35.6882 0.626108 36.0515 0.626108C36.4132 0.626108 36.7144 0.749185 36.9644 0.999954C37.2128 1.25072 37.3354 1.56611 37.3385 1.95842C37.337 2.35072 37.2128 2.66611 36.9644 2.91688C36.7144 3.16765 36.4148 3.29072 36.0515 3.29072C35.6898 3.29072 35.3901 3.16765 35.1386 2.91688L35.0967 2.95688V2.95842Z" fill="white"/>
<path d="M38.4902 3.69997V0.219971H39.0398L40.746 2.92766H40.7662L40.746 2.25689V0.219971H41.1978V3.69997H40.7258L38.9405 0.861509H38.9203L38.9405 1.53382V3.69997H38.4902Z" fill="white"/>
<path d="M38.4906 3.70008H38.5481V0.278544H39.0061L40.7123 2.98624H40.8256L40.8054 2.25547V0.278544H41.1392V3.64162H40.7604L38.9735 0.80316H38.8632L38.8834 1.53393V3.64162H38.4906V3.70008H38.5481H38.4906V3.75854H38.9999V1.53085L38.9797 0.860083L38.9207 0.861621V0.920083H38.9409V0.861621L38.8912 0.89239L40.6952 3.75854H41.2572V0.161621H40.6874V2.25854L40.7076 2.92931L40.7666 2.92777V2.86931H40.7464V2.92777L40.7961 2.89701L39.0713 0.161621H38.4316V3.75854H38.4906V3.70008Z" fill="white"/>
<path d="M34.1363 8.77684C32.7592 8.77684 31.6383 9.81376 31.6383 11.243C31.6383 12.6722 32.7607 13.7091 34.1363 13.7091C35.5118 13.7091 36.6342 12.663 36.6342 11.243C36.6342 9.82299 35.5133 8.77684 34.1363 8.77684ZM34.1363 12.7384C33.3817 12.7384 32.7312 12.123 32.7312 11.2445C32.7312 10.3661 33.3833 9.74915 34.1363 9.74915C34.8892 9.74915 35.5397 10.3568 35.5397 11.2445C35.5397 12.1322 34.8908 12.7384 34.1363 12.7384ZM28.6854 8.77684C27.3083 8.77684 26.1858 9.81376 26.1858 11.243C26.1858 12.6722 27.3083 13.7091 28.6854 13.7091C30.0625 13.7091 31.1834 12.663 31.1834 11.243C31.1834 9.82299 30.0609 8.77684 28.6854 8.77684ZM28.6854 12.7384C27.9309 12.7384 27.2788 12.123 27.2788 11.2445C27.2788 10.3661 27.9309 9.74915 28.6854 9.74915C29.4399 9.74915 30.0904 10.3568 30.0904 11.2445C30.0904 12.1322 29.4399 12.7384 28.6854 12.7384ZM22.2005 9.53376V10.5799H24.728C24.652 11.1691 24.4548 11.5984 24.1536 11.8984C23.7857 12.263 23.2097 12.6645 22.2005 12.6645C20.6449 12.6645 19.4278 11.4215 19.4278 9.87992C19.4278 8.33838 20.6449 7.0953 22.2005 7.0953C23.0405 7.0953 23.6537 7.42299 24.1055 7.84299L24.8507 7.10453C24.2188 6.50607 23.3789 6.04761 22.2005 6.04761C20.0705 6.04761 18.2773 7.76761 18.2773 9.87992C18.2773 11.9922 20.0689 13.7107 22.2005 13.7107C23.351 13.7107 24.2188 13.3384 24.8973 12.6353C25.5959 11.9445 25.8117 10.9722 25.8117 10.1876C25.8117 9.94453 25.7931 9.72145 25.7558 9.53376H22.2005ZM48.7205 10.3461C48.5141 9.7953 47.8806 8.77684 46.5889 8.77684C45.2973 8.77684 44.2415 9.77684 44.2415 11.243C44.2415 12.6261 45.2973 13.7091 46.7116 13.7091C47.8527 13.7091 48.5141 13.0184 48.7857 12.6168L47.9365 12.0553C47.6555 12.4661 47.2674 12.7368 46.7116 12.7368C46.1558 12.7368 45.7599 12.4845 45.5037 11.9907L48.8339 10.6261L48.7205 10.3445V10.3461ZM45.3252 11.1691C45.2957 10.2153 46.0704 9.73068 46.6262 9.73068C47.0609 9.73068 47.4273 9.94453 47.5484 10.2538L45.3237 11.1691H45.3252ZM42.6207 13.5599H43.7152V6.30915H42.6207V13.5599ZM40.8276 9.32761H40.7903C40.545 9.03838 40.0746 8.77684 39.48 8.77684C38.2349 8.77684 37.0938 9.85992 37.0938 11.2522C37.0938 12.6445 38.2349 13.7091 39.48 13.7091C40.0746 13.7091 40.545 13.4476 40.7903 13.1491H40.8276V13.5045C40.8276 14.4491 40.3184 14.9538 39.4986 14.9538C38.8295 14.9538 38.4134 14.4768 38.2442 14.0753L37.2925 14.4676C37.5642 15.1215 38.2923 15.9245 39.4986 15.9245C40.781 15.9245 41.8662 15.1768 41.8662 13.3553V8.92607H40.8291V9.32761H40.8276ZM39.5731 12.7384C38.8186 12.7384 38.1883 12.1122 38.1883 11.2538C38.1883 10.3953 38.8202 9.74915 39.5731 9.74915C40.3261 9.74915 40.9021 10.3845 40.9021 11.2538C40.9021 12.123 40.3183 12.7384 39.5731 12.7384ZM53.8438 6.30915H51.2263V13.5599H52.3177V10.8122H53.8423C55.0532 10.8122 56.2425 9.94299 56.2425 8.55992C56.2425 7.17684 55.0532 6.30761 53.8423 6.30761L53.8438 6.30915ZM53.8718 9.80453H52.3193V7.31838H53.8718C54.6884 7.31838 55.151 7.98761 55.151 8.56145C55.151 9.1353 54.6868 9.80453 53.8718 9.80453ZM60.6221 8.76299C59.8319 8.76299 59.0121 9.10761 58.6737 9.87222L59.6425 10.2738C59.8489 9.87222 60.234 9.74145 60.6392 9.74145C61.2043 9.74145 61.7787 10.0784 61.788 10.6753V10.7491C61.5893 10.6368 61.167 10.4691 60.6485 10.4691C59.6036 10.4691 58.5402 11.0384 58.5402 12.1015C58.5402 13.0722 59.3956 13.6968 60.3566 13.6968C61.091 13.6968 61.4962 13.3707 61.7492 12.9876H61.7865V13.5476H62.8406V10.7676C62.8406 9.47992 61.8703 8.76145 60.619 8.76145L60.6221 8.76299ZM60.4901 12.7368C60.1315 12.7368 59.6331 12.5599 59.6331 12.1215C59.6331 11.5615 60.2542 11.3461 60.7898 11.3461C61.271 11.3461 61.4962 11.4491 61.788 11.5891C61.7042 12.2615 61.1189 12.7368 60.4886 12.7368H60.4901ZM66.6847 8.92145L65.4333 12.0645H65.3945L64.0951 8.92145H62.9183L64.8682 13.3153L63.7566 15.7599H64.8962L67.8987 8.92299H66.6847V8.92145ZM56.8464 13.5599H57.9378V6.30915H56.8464V13.5599Z" fill="white"/>
<path d="M0.362911 0.538438C0.192134 0.7169 0.0927734 0.993823 0.0927734 1.35228V14.1692C0.0927734 14.5277 0.192134 14.8046 0.362911 14.9831L0.406381 15.0246L7.65195 7.84459V7.67536L0.406381 0.495361L0.362911 0.5369" fill="#5AC9F4"/>
<mask id="mask0_2422_7278" style="mask-type:luminance" maskUnits="userSpaceOnUse" x="7" y="5" width="7" height="6">
<path d="M10.0675 10.24L7.65332 7.84457V7.67534L10.069 5.28149L12.9846 6.92303C13.8013 7.38303 13.8013 8.13534 12.9846 8.59534L10.1218 10.2061L10.0675 10.2384" fill="white"/>
</mask>
<g mask="url(#mask0_2422_7278)">
<path d="M13.8009 5.28149H7.65137V10.24H13.8009V5.28149Z" fill="url(#paint0_linear_2422_7278)"/>
</g>
<mask id="mask1_2422_7278" style="mask-type:luminance" maskUnits="userSpaceOnUse" x="0" y="7" width="11" height="9">
<path d="M10.1224 10.2077L7.65232 7.76001L0.363281 14.9831C0.631866 15.2662 1.07744 15.3 1.5789 15.0185L10.1224 10.2077Z" fill="white"/>
</mask>
<g mask="url(#mask1_2422_7278)">
<path d="M5.24212 2.92704L-3.44141 11.532L5.24212 20.1369L13.9257 11.532L5.24212 2.92704Z" fill="url(#paint1_linear_2422_7278)"/>
</g>
<mask id="mask2_2422_7278" style="mask-type:luminance" maskUnits="userSpaceOnUse" x="0" y="0" width="11" height="8">
<path d="M10.1224 5.31407L1.5789 0.503304C1.07744 0.221766 0.631866 0.255612 0.363281 0.538689L7.65232 7.76177L10.1224 5.31407Z" fill="white"/>
</mask>
<g mask="url(#mask2_2422_7278)">
<path d="M5.24212 -4.61605L-3.44141 3.98889L5.24212 12.5938L13.9257 3.98889L5.24212 -4.61605Z" fill="url(#paint2_linear_2422_7278)"/>
</g>
</g>
<defs>
<linearGradient id="paint0_linear_2422_7278" x1="12.3547" y1="7.74691" x2="-1.79775" y2="7.74691" gradientUnits="userSpaceOnUse">
<stop stop-color="#FEE000"/>
<stop offset="0.4" stop-color="#FBBD0D"/>
<stop offset="0.77" stop-color="#F9A417"/>
<stop offset="1" stop-color="#F99B1B"/>
</linearGradient>
<linearGradient id="paint1_linear_2422_7278" x1="8.21437" y1="8.63302" x2="-4.97461" y2="21.9424" gradientUnits="userSpaceOnUse">
<stop stop-color="#EF4547"/>
<stop offset="1" stop-color="#C6176D"/>
</linearGradient>
<linearGradient id="paint2_linear_2422_7278" x1="-5.10221" y1="-6.17815" x2="5.66715" y2="4.68956" gradientUnits="userSpaceOnUse">
<stop stop-color="#269E6F"/>
<stop offset="0.05" stop-color="#2BA06E"/>
<stop offset="0.47" stop-color="#52B26A"/>
<stop offset="0.8" stop-color="#6BBC68"/>
<stop offset="1" stop-color="#74C168"/>
</linearGradient>
<clipPath id="clip0_2422_7278">
<rect width="68" height="16" fill="white"/>
</clipPath>
</defs>
</svg>
