<svg xmlns="http://www.w3.org/2000/svg" width="20" height="20" fill="none" viewBox="0 0 20 20">
  <g clip-path="url(#a)">
    <path stroke="#000" stroke-linecap="round" stroke-linejoin="round" stroke-width="1.6" d="M15 5.834v-1.5c0-.934 0-1.4-.182-1.757a1.667 1.667 0 0 0-.728-.728c-.357-.182-.823-.182-1.757-.182H7.666c-.933 0-1.4 0-1.756.182-.314.16-.569.414-.729.728C5 2.934 5 3.4 5 4.334v1.5M5 15c-.775 0-1.163 0-1.48-.085a2.5 2.5 0 0 1-1.768-1.768c-.085-.318-.085-.705-.085-1.48V9.834c0-1.4 0-2.1.272-2.635a2.5 2.5 0 0 1 1.093-1.093c.534-.272 1.234-.272 2.635-.272h8.666c1.4 0 2.1 0 2.635.272A2.5 2.5 0 0 1 18.061 7.2c.272.534.272 1.235.272 2.635v1.833c0 .775 0 1.162-.085 1.48a2.5 2.5 0 0 1-1.768 1.768C16.162 15 15.775 15 15 15m-2.5-6.25H15m-7.333 9.584h4.666c.934 0 1.4 0 1.757-.182.313-.16.568-.415.728-.728.182-.357.182-.824.182-1.757v-1.333c0-.934 0-1.4-.182-1.757a1.667 1.667 0 0 0-.728-.728c-.357-.182-.823-.182-1.757-.182H7.666c-.933 0-1.4 0-1.756.182-.314.16-.569.414-.729.728C5 12.934 5 13.4 5 14.334v1.333c0 .933 0 1.4.181 1.757.16.313.415.568.729.728.356.182.823.182 1.756.182Z"/>
  </g>
  <defs>
    <clipPath id="a">
      <path fill="#fff" d="M0 0h20v20H0z"/>
    </clipPath>
  </defs>
</svg>
