<svg xmlns="http://www.w3.org/2000/svg" width="24" height="24" fill="none" viewBox="0 0 24 24">
  <g clip-path="url(#a)">
    <mask id="b" width="24" height="24" x="0" y="0" maskUnits="userSpaceOnUse" style="mask-type:alpha">
      <path fill="#28303A" d="M21.227 12.171a.8.8 0 0 1 .71.88 9.987 9.987 0 0 1-4.942 7.608c-4.513 2.607-10.212 1.29-13.156-2.89l-.269 1.003a.8.8 0 1 1-1.543-.414l.791-2.956.026-.079a.8.8 0 0 1 .954-.487l2.954.792a.8.8 0 0 1-.413 1.545l-1.19-.32a8.39 8.39 0 0 0 11.047 2.421 8.387 8.387 0 0 0 4.152-6.392.8.8 0 0 1 .88-.71ZM7.004 3.341c4.512-2.607 10.21-1.29 13.155 2.89l.27-1.003a.799.799 0 1 1 1.544.414L21.18 8.6a.8.8 0 0 1-.979.565l-2.955-.792a.8.8 0 0 1 .414-1.545l1.188.318a8.39 8.39 0 0 0-11.046-2.42 8.388 8.388 0 0 0-4.153 6.393.799.799 0 1 1-1.588-.169 9.988 9.988 0 0 1 4.942-7.608Z"/>
    </mask>
    <g mask="url(#b)">
      <path fill="#fff" d="M0 0h24v24H0z"/>
    </g>
  </g>
  <defs>
    <clipPath id="a">
      <path fill="#fff" d="M0 0h24v24H0z"/>
    </clipPath>
  </defs>
</svg>
