<svg xmlns="http://www.w3.org/2000/svg" width="20" height="20" fill="none" viewBox="0 0 20 20">
  <g clip-path="url(#a)">
    <mask id="b" width="20" height="20" x="0" y="0" maskUnits="userSpaceOnUse" style="mask-type:alpha">
      <path fill="#28303A" d="M16.16 10c0-3.406-2.774-6.167-6.195-6.167a6.19 6.19 0 0 0-4.383 1.808c-.593.591-1.268 1.395-1.801 2.064-.03.036-.058.074-.086.11h3.218c.37 0 .67.298.67.666a.67.67 0 0 1-.67.668H2.336a.67.67 0 0 1-.67-.668V3.926c0-.368.3-.667.67-.667.37 0 .67.299.67.667v2.61C3.501 5.93 4.09 5.242 4.634 4.7a7.532 7.532 0 0 1 5.33-2.2c4.162 0 7.536 3.358 7.536 7.5 0 4.142-3.374 7.5-7.535 7.5a7.533 7.533 0 0 1-7.241-5.417.67.67 0 0 1 1.287-.37 6.195 6.195 0 0 0 5.954 4.454c3.421 0 6.195-2.761 6.195-6.167Z"/>
    </mask>
    <g mask="url(#b)">
      <path fill="#28303A" d="M0 0h20v20H0z"/>
    </g>
  </g>
  <defs>
    <clipPath id="a">
      <path fill="#fff" d="M0 0h20v20H0z"/>
    </clipPath>
  </defs>
</svg>
