<svg width="20" height="20" viewBox="0 0 20 20" fill="none" xmlns="http://www.w3.org/2000/svg">
<g clip-path="url(#clip0_2422_7152)">
<path d="M14.4244 -0.00012207H5.57556C2.50093 -0.00012207 0 2.50081 0 5.57544V14.4218C0 17.4965 2.50093 19.9974 5.57556 19.9974H14.4244C17.4991 19.9974 20 17.4965 20 14.4218V5.57544C20 2.50081 17.4991 -0.00012207 14.4244 -0.00012207ZM18.4627 14.4243C18.4627 16.6521 16.6522 18.4626 14.4244 18.4626H5.57556C3.34782 18.4626 1.53732 16.6521 1.53732 14.4243V5.57544C1.53732 3.3477 3.34782 1.53719 5.57556 1.53719H14.4244C16.6522 1.53719 18.4627 3.3477 18.4627 5.57544V14.4218V14.4243Z" fill="#28303A"/>
<path d="M10.0014 4.76819C7.11551 4.76819 4.76855 7.11514 4.76855 10.001C4.76855 12.8869 7.11551 15.2339 10.0014 15.2339C12.8873 15.2339 15.2342 12.8869 15.2342 10.001C15.2342 7.11514 12.8873 4.76819 10.0014 4.76819ZM10.0014 13.6941C7.96488 13.6941 6.30587 12.0375 6.30587 9.99854C6.30587 7.95955 7.9624 6.30302 10.0014 6.30302C12.0404 6.30302 13.6969 7.95955 13.6969 9.99854C13.6969 12.0375 12.0404 13.6941 10.0014 13.6941Z" fill="#28303A"/>
<path d="M15.4009 3.30054C14.6856 3.30054 14.1045 3.88169 14.1045 4.59695C14.1045 5.31221 14.6856 5.89336 15.4009 5.89336C16.1162 5.89336 16.6973 5.31221 16.6973 4.59695C16.6973 3.88169 16.1162 3.30054 15.4009 3.30054Z" fill="#28303A"/>
</g>
<defs>
<clipPath id="clip0_2422_7152">
<rect width="20" height="20" fill="white"/>
</clipPath>
</defs>
</svg>
