<svg width="22" height="15" viewBox="0 0 22 15" fill="none" xmlns="http://www.w3.org/2000/svg">
<path d="M19.8719 1.06952C18.4843 -0.271989 12.8938 0.0201797 10.4559 0.040755C7.6886 0.0654453 2.4627 -0.0497761 1.24455 1.27527C0.450331 2.13737 0.0206739 4.74837 0.0022512 7.40669H0C0 7.43756 0.0022512 7.46842 0.0022512 7.49928C0.0022512 7.53015 0 7.56101 0 7.59187H0.0022512C0.0206739 10.2502 0.450331 12.8612 1.24455 13.7233C2.4627 15.0485 7.6886 14.9331 10.4559 14.9578C12.8938 14.9806 18.4843 15.2726 19.8719 13.929C20.7337 13.0958 21.141 10.3654 21.1371 7.59187V7.40669C21.141 4.63315 20.7337 1.90281 19.8719 1.06952ZM8.17291 10.5757V4.42369L13.8033 7.339L8.17291 10.5757Z" fill="#28303A"/>
</svg>
